# xmcd
#
# Track frame offsets:
# 150
# 12497
# 27913
# 40625
# 54344
# 68899
# 83197
# 97999
# 117925
# 137576
# 148209
# 160667
# 173666
# 195661
# 211031
# 223664
# 233569
#
# Disc length: 3259 seconds
#
#
# Revision: 0
# Processed by: cddbd v1.5.1PL2 Copyright (c) Steve Scherf et al.
# Submitted via: FreeRIP 2.90 
#
DISCID=df0cb911
DTITLE=Eduardo Costa -  - No boteco
DYEAR=2005
DGENRE=sertanejo
TTITLE0=Entre ele e eu
TTITLE1=To indo embora
TTITLE2=Me esqueca
TTITLE3=Diz pro meu olhar
TTITLE4=Linda demais
TTITLE5=E de madrugada
TTITLE6=As paredes azuis
TTITLE7=Imperfeito
TTITLE8=Voce so me faz feliz
TTITLE9=Ima
TTITLE10=Voce decide
TTITLE11=Pagina de amigos
TTITLE12=Nos bares da cidade
TTITLE13=Saudade de nos dois
TTITLE14=Eu e a solidao
TTITLE15=sem titulo
TTITLE16=sem titulo
EXTD=
EXTT0=
EXTT1=
EXTT2=
EXTT3=
EXTT4=
EXTT5=
EXTT6=
EXTT7=
EXTT8=
EXTT9=
EXTT10=
EXTT11=
EXTT12=
EXTT13=
EXTT14=
EXTT15=
EXTT16=
PLAYORDER=
